<?xml version="1.0" encoding="UTF-8"?>
<svg id="Camada_1" data-name="Camada 1" xmlns="http://www.w3.org/2000/svg" viewBox="0 0 286.29 85.55">
  <defs>
    <style>
      .cls-1 {
        fill: #fff;
      }

      .cls-1, .cls-2, .cls-3, .cls-4 {
        fill-rule: evenodd;
        stroke-width: 0px;
      }

      .cls-2 {
        fill: #8e2f88;
      }

      .cls-3 {
        fill: #9b4191;
      }

      .cls-4 {
        fill: #fab517;
      }
    </style>
  </defs>
  <path class="cls-3" d="M30.81,40.03v-3.24c-2.37,0-4.28-1.92-4.28-4.28s1.92-4.28,4.28-4.28v-3.24H0l15.05,15.05h15.76Z"/>
  <path class="cls-1" d="M38.86,83.91V25.56h15.05v58.36h-15.05ZM46.33,18.55c-2.49,0-4.65-.91-6.48-2.74-1.83-1.83-2.74-3.99-2.74-6.48s.92-4.67,2.74-6.54c1.83-1.87,3.99-2.8,6.48-2.8s4.76.93,6.59,2.8c1.83,1.87,2.74,4.05,2.74,6.54s-.91,4.65-2.74,6.48c-1.83,1.83-4.02,2.74-6.59,2.74Z"/>
  <path class="cls-1" d="M95.47,85.55c-8.79,0-16.13-2.96-22-8.87-5.88-5.92-8.81-13.23-8.81-21.94s2.94-16.03,8.81-21.94c5.87-5.91,13.21-8.87,22-8.87,5.68,0,10.85,1.36,15.52,4.09,4.67,2.72,8.21,6.38,10.62,10.97l-12.96,7.58c-1.17-2.41-2.94-4.32-5.31-5.72-2.37-1.4-5.04-2.1-7.99-2.1-4.51,0-8.25,1.5-11.2,4.5-2.96,3-4.44,6.82-4.44,11.5s1.48,8.38,4.44,11.38c2.96,2.99,6.69,4.49,11.2,4.49,3.03,0,5.74-.68,8.11-2.04,2.37-1.36,4.14-3.25,5.31-5.66l13.07,7.47c-2.57,4.59-6.19,8.26-10.86,11.03-4.67,2.76-9.84,4.14-15.52,4.14"/>
  <polygon class="cls-1" points="183.58 83.91 166.08 83.91 144.84 57.4 144.84 83.91 129.78 83.91 129.78 2.22 144.84 2.22 144.84 51.33 164.91 25.56 182.88 25.56 159.42 54.38 183.58 83.91"/>
  <path class="cls-1" d="M199.34,49.25h29.76c-.86-3.97-2.63-6.92-5.31-8.87-2.69-1.94-5.74-2.92-9.16-2.92-4.05,0-7.39,1.03-10.04,3.09-2.65,2.06-4.4,4.96-5.25,8.69M199.57,60.92c2.02,7.31,7.51,10.97,16.46,10.97,5.76,0,10.11-1.94,13.07-5.83l12.14,7c-5.76,8.32-14.24,12.49-25.44,12.49-9.65,0-17.39-2.92-23.23-8.75-5.83-5.84-8.75-13.19-8.75-22.05s2.88-16.13,8.64-22c5.76-5.87,13.15-8.81,22.17-8.81,8.56,0,15.62,2.96,21.18,8.87,5.56,5.91,8.35,13.23,8.35,21.94,0,1.94-.2,4.01-.58,6.19h-44Z"/>
  <path class="cls-1" d="M286.29,40.03h-13.19v24.28c0,2.02.51,3.5,1.52,4.44,1.01.93,2.49,1.46,4.44,1.57,1.94.12,4.36.1,7.24-.06v13.66c-10.35,1.17-17.64.19-21.88-2.92-4.24-3.11-6.36-8.68-6.36-16.69v-24.28h-10.15v-14.47h10.15v-11.79l15.05-4.55v16.34h13.19v14.47Z"/>
  <path class="cls-1" d="M15.05,40.03L0,55.09v9.22c0,8.01,2.12,13.58,6.36,16.69,4.24,3.11,11.54,4.08,21.88,2.92v-13.66c-2.88.16-5.29.18-7.23.06-1.95-.12-3.43-.64-4.44-1.57-1.01-.93-1.51-2.41-1.51-4.44v-24.28Z"/>
  <path class="cls-4" d="M15.05,9.22h-3.25c0,2.36-1.92,4.28-4.28,4.28s-4.28-1.92-4.28-4.28H0v15.76l15.05,15.05V9.22Z"/>
  <polygon class="cls-2" points="15.05 40.03 18.25 24.98 15.05 24.98 15.05 40.03"/>
</svg>